<svg width="45" height="46" viewBox="0 0 45 46" fill="none" xmlns="http://www.w3.org/2000/svg">
<rect y="0.5" width="45" height="45" rx="22.5" fill="#5E61D3"/>
<path d="M22.5 32C28.7132 32 33.75 26.9632 33.75 20.75C33.75 14.5368 28.7132 9.5 22.5 9.5C16.2868 9.5 11.25 14.5368 11.25 20.75C11.25 26.9632 16.2868 32 22.5 32Z" stroke="white" stroke-width="1.5"/>
<path d="M9 32V36.5H36V32" stroke="white" stroke-width="1.5"/>
<path d="M21.0938 20.1875C20.3478 20.1875 19.6325 19.8912 19.105 19.3637C18.5776 18.8363 18.2812 18.1209 18.2812 17.375C18.2812 16.6291 18.5776 15.9137 19.105 15.3863C19.6325 14.8588 20.3478 14.5625 21.0938 14.5625" stroke="white" stroke-width="1.5"/>
<path d="M23.9062 20.1875C24.6522 20.1875 25.3675 20.4838 25.895 21.0113C26.4224 21.5387 26.7188 22.2541 26.7188 23C26.7188 23.7459 26.4224 24.4613 25.895 24.9887C25.3675 25.5162 24.6522 25.8125 23.9062 25.8125" stroke="white" stroke-width="1.5"/>
<path d="M22.5 11.75V14.5625" stroke="white" stroke-width="1.5"/>
<path d="M22.5 25.8125V28.625" stroke="white" stroke-width="1.5"/>
<path d="M21.0938 20.1875H23.9062" stroke="white" stroke-width="1.5"/>
<path d="M26.7188 15.9688C26.7188 15.9688 25.3125 14.5625 23.9062 14.5625H21.0938" stroke="white" stroke-width="1.5"/>
<path d="M18.2812 24.4062C18.2812 24.4062 19.6875 25.8125 21.0938 25.8125H23.9062" stroke="white" stroke-width="1.5"/>
</svg>
