<svg width="32" height="33" viewBox="0 0 32 33" fill="none" xmlns="http://www.w3.org/2000/svg">
<g clip-path="url(#clip0_28_8)">
<path d="M16 32.5C24.8366 32.5 32 25.3366 32 16.5C32 7.66344 24.8366 0.5 16 0.5C7.16344 0.5 0 7.66344 0 16.5C0 25.3366 7.16344 32.5 16 32.5Z" fill="url(#paint0_linear_28_8)"/>
<path d="M27.4605 16.7233H24.6326C24.6326 10.9931 19.9442 6.30469 14.214 6.30469C8.48372 6.30469 3.86977 10.8442 3.79535 16.5C3.64651 22.3047 9.15349 27.4396 15.0326 27.4396H15.7767C20.9116 27.4396 27.907 23.421 28.9488 18.5093C29.0977 17.5419 28.3535 16.7233 27.4605 16.7233ZM9.97209 16.9465C9.97209 17.6907 9.37675 18.3605 8.55814 18.3605C7.81395 18.3605 7.14419 17.7652 7.14419 16.9465V14.714C7.14419 13.9698 7.73954 13.3 8.55814 13.3C9.30233 13.3 9.97209 13.8954 9.97209 14.714V16.9465ZM14.8837 16.9465C14.8837 17.6907 14.2884 18.3605 13.4698 18.3605C12.7256 18.3605 12.0558 17.7652 12.0558 16.9465V14.714C12.0558 13.9698 12.6512 13.3 13.4698 13.3C14.214 13.3 14.8837 13.8954 14.8837 14.714V16.9465Z" fill="url(#paint1_linear_28_8)"/>
</g>
<defs>
<linearGradient id="paint0_linear_28_8" x1="16" y1="0.5" x2="16" y2="32.5" gradientUnits="userSpaceOnUse">
<stop stop-color="#534BB1"/>
<stop offset="1" stop-color="#551BF9"/>
</linearGradient>
<linearGradient id="paint1_linear_28_8" x1="16.3405" y1="6.28727" x2="16.3405" y2="27.3937" gradientUnits="userSpaceOnUse">
<stop stop-color="white"/>
<stop offset="1" stop-color="white" stop-opacity="0.82"/>
</linearGradient>
<clipPath id="clip0_28_8">
<rect width="32" height="32" fill="white" transform="translate(0 0.5)"/>
</clipPath>
</defs>
</svg>
